<svg width="173" height="30" viewBox="0 0 173 30" fill="none" xmlns="http://www.w3.org/2000/svg">
<path d="M50.2441 10.7441C49.4694 10.041 48.444 9.68945 47.168 9.68945C46.4974 9.68945 45.8887 9.85872 45.3418 10.1973C44.7949 10.5358 44.3522 10.9883 44.0137 11.5547C43.3105 12.7331 42.959 14.1328 42.959 15.7539C42.959 17.3685 43.2747 18.752 43.9062 19.9043C44.2122 20.4707 44.6191 20.9167 45.127 21.2422C45.6348 21.5677 46.1816 21.7305 46.7676 21.7305C47.36 21.7305 47.8516 21.6589 48.2422 21.5156C48.6328 21.3659 49.0592 21.1543 49.5215 20.8809V16.8965H46.2891V15.4023H51.2109V21.7109C50.4492 22.1992 49.7266 22.5768 49.043 22.8438C48.3594 23.1107 47.5651 23.2441 46.6602 23.2441C45.7617 23.2441 44.9447 23.0456 44.209 22.6484C43.4798 22.2448 42.8874 21.6947 42.4316 20.998C41.5072 19.5853 41.0449 17.8112 41.0449 15.6758C41.0449 14.569 41.1947 13.5469 41.4941 12.6094C41.8001 11.6719 42.2201 10.8841 42.7539 10.2461C43.2878 9.60156 43.9225 9.10026 44.6582 8.74219C45.3939 8.38411 46.1849 8.20508 47.0312 8.20508C48.6458 8.20508 49.9349 8.61849 50.8984 9.44531L50.2441 10.7441ZM56.3379 16.8379H59.6777L58.0371 10.5195L56.3379 16.8379ZM59.043 8.43945L63.3496 23H61.4258L60.0488 18.3027H55.957L54.5898 23H52.6758L56.9727 8.43945H59.043ZM66.0938 20.4512C67.1354 21.304 68.3757 21.7305 69.8145 21.7305C70.5957 21.7305 71.1979 21.4928 71.6211 21.0176C72.0443 20.5358 72.2559 19.9141 72.2559 19.1523C72.2559 18.3906 72.0345 17.8145 71.5918 17.4238C71.1556 17.0267 70.625 16.7012 70 16.4473L69.4141 16.2129C68.3073 15.7702 67.5391 15.3958 67.1094 15.0898C66.6862 14.7839 66.377 14.5039 66.1816 14.25C65.7194 13.651 65.4883 12.9121 65.4883 12.0332C65.4883 10.8158 65.9017 9.87174 66.7285 9.20117C67.5553 8.52409 68.6198 8.18555 69.9219 8.18555C71.5625 8.18555 72.8418 8.54688 73.7598 9.26953L73.0762 10.6758C72.2298 10.0182 71.2109 9.68945 70.0195 9.68945C69.2513 9.68945 68.6393 9.90104 68.1836 10.3242C67.7344 10.7409 67.5098 11.3268 67.5098 12.082C67.5098 12.8307 67.9232 13.446 68.75 13.9277C69.0625 14.1035 69.5345 14.3151 70.166 14.5625C70.804 14.8099 71.4388 15.0996 72.0703 15.4316C72.7083 15.7637 73.2422 16.2129 73.6719 16.7793C74.1016 17.3457 74.3164 18.0684 74.3164 18.9473C74.3164 20.347 73.9095 21.4147 73.0957 22.1504C72.2884 22.8796 71.1816 23.2441 69.7754 23.2441C68.0241 23.2441 66.5658 22.8568 65.4004 22.082L66.0938 20.4512ZM87.0605 8.43945V9.86523H82.9199V23H81.0938V9.86523H76.9531V8.43945H87.0605ZM95.6348 10.5098C95.1921 9.96289 94.6615 9.68945 94.043 9.68945C93.4245 9.68945 92.8939 9.96289 92.4512 10.5098C92.0085 11.0501 91.6829 11.7663 91.4746 12.6582C91.2663 13.5501 91.1621 14.569 91.1621 15.7148C91.1621 16.8607 91.2663 17.8796 91.4746 18.7715C91.6829 19.6634 92.0085 20.3796 92.4512 20.9199C92.8939 21.4603 93.4245 21.7305 94.043 21.7305C94.6615 21.7305 95.1921 21.4603 95.6348 20.9199C96.0775 20.3796 96.403 19.6634 96.6113 18.7715C96.8197 17.8796 96.9238 16.8607 96.9238 15.7148C96.9238 14.569 96.8197 13.5501 96.6113 12.6582C96.403 11.7663 96.0775 11.0501 95.6348 10.5098ZM96.1816 22.6387C95.5566 23.0423 94.8438 23.2441 94.043 23.2441C93.2422 23.2441 92.5293 23.0423 91.9043 22.6387C91.2793 22.2285 90.7747 21.6719 90.3906 20.9688C89.6289 19.556 89.248 17.8014 89.248 15.7051C89.248 13.1139 89.7591 11.138 90.7812 9.77734C91.1393 9.29557 91.5951 8.91146 92.1484 8.625C92.7083 8.33854 93.3398 8.19531 94.043 8.19531C94.7461 8.19531 95.3776 8.33854 95.9375 8.625C96.9531 9.14583 97.6888 10.054 98.1445 11.3496C98.6068 12.6387 98.8379 14.0905 98.8379 15.7051C98.8379 17.8014 98.457 19.556 97.6953 20.9688C97.3112 21.6719 96.8066 22.2285 96.1816 22.6387ZM102.129 20.4512C103.171 21.304 104.411 21.7305 105.85 21.7305C106.631 21.7305 107.233 21.4928 107.656 21.0176C108.079 20.5358 108.291 19.9141 108.291 19.1523C108.291 18.3906 108.07 17.8145 107.627 17.4238C107.191 17.0267 106.66 16.7012 106.035 16.4473L105.449 16.2129C104.342 15.7702 103.574 15.3958 103.145 15.0898C102.721 14.7839 102.412 14.5039 102.217 14.25C101.755 13.651 101.523 12.9121 101.523 12.0332C101.523 10.8158 101.937 9.87174 102.764 9.20117C103.59 8.52409 104.655 8.18555 105.957 8.18555C107.598 8.18555 108.877 8.54688 109.795 9.26953L109.111 10.6758C108.265 10.0182 107.246 9.68945 106.055 9.68945C105.286 9.68945 104.674 9.90104 104.219 10.3242C103.77 10.7409 103.545 11.3268 103.545 12.082C103.545 12.8307 103.958 13.446 104.785 13.9277C105.098 14.1035 105.57 14.3151 106.201 14.5625C106.839 14.8099 107.474 15.0996 108.105 15.4316C108.743 15.7637 109.277 16.2129 109.707 16.7793C110.137 17.3457 110.352 18.0684 110.352 18.9473C110.352 20.347 109.945 21.4147 109.131 22.1504C108.324 22.8796 107.217 23.2441 105.811 23.2441C104.059 23.2441 102.601 22.8568 101.436 22.082L102.129 20.4512ZM128.291 16.3301V23H126.465V8.43945H134.609L134.434 9.86523H128.291V14.7383H134.18V16.3301H128.291ZM140.42 16.8379H143.76L142.119 10.5195L140.42 16.8379ZM143.125 8.43945L147.432 23H145.508L144.131 18.3027H140.039L138.672 23H136.758L141.055 8.43945H143.125ZM150.176 20.4512C151.217 21.304 152.458 21.7305 153.896 21.7305C154.678 21.7305 155.28 21.4928 155.703 21.0176C156.126 20.5358 156.338 19.9141 156.338 19.1523C156.338 18.3906 156.117 17.8145 155.674 17.4238C155.238 17.0267 154.707 16.7012 154.082 16.4473L153.496 16.2129C152.389 15.7702 151.621 15.3958 151.191 15.0898C150.768 14.7839 150.459 14.5039 150.264 14.25C149.801 13.651 149.57 12.9121 149.57 12.0332C149.57 10.8158 149.984 9.87174 150.811 9.20117C151.637 8.52409 152.702 8.18555 154.004 8.18555C155.645 8.18555 156.924 8.54688 157.842 9.26953L157.158 10.6758C156.312 10.0182 155.293 9.68945 154.102 9.68945C153.333 9.68945 152.721 9.90104 152.266 10.3242C151.816 10.7409 151.592 11.3268 151.592 12.082C151.592 12.8307 152.005 13.446 152.832 13.9277C153.145 14.1035 153.617 14.3151 154.248 14.5625C154.886 14.8099 155.521 15.0996 156.152 15.4316C156.79 15.7637 157.324 16.2129 157.754 16.7793C158.184 17.3457 158.398 18.0684 158.398 18.9473C158.398 20.347 157.992 21.4147 157.178 22.1504C156.37 22.8796 155.264 23.2441 153.857 23.2441C152.106 23.2441 150.648 22.8568 149.482 22.082L150.176 20.4512ZM171.143 8.43945V9.86523H167.002V23H165.176V9.86523H161.035V8.43945H171.143Z" fill="#0C7B53"/>
<path d="M0 26.6953C4.91448 26.6953 8.89841 22.7113 8.89841 17.7969C8.89841 12.8824 4.91448 8.89844 0 8.89844V15.1273C1.47433 15.1273 2.66951 16.3225 2.66951 17.7969C2.66951 19.2712 1.47433 20.4664 0 20.4664V26.6953Z" fill="#8CEA6B"/>
<path d="M29.6614 11.8646C28.1408 11.3829 26.5215 11.123 24.8414 11.123C16.0363 11.123 8.89844 18.261 8.89844 27.066C8.89844 27.9498 8.97036 28.8168 9.10862 29.6614H19.0145C18.6609 28.8686 18.4643 27.9903 18.4643 27.066C18.4643 23.544 21.3194 20.6888 24.8414 20.6888C26.7664 20.6888 28.4921 21.5417 29.6614 22.8902V11.8646Z" fill="#E0FCA5"/>
<path d="M1.56451 0C2.30225 6.67374 7.9603 11.8646 14.8307 11.8646C21.701 11.8646 27.3591 6.67374 28.0968 0H18.5513C17.962 1.4773 16.5182 2.52121 14.8307 2.52121C13.1431 2.52121 11.6994 1.4773 11.11 0H1.56451Z" fill="#46E573"/>
</svg>
