<svg width="19" height="19" viewBox="0 0 19 19" fill="none" xmlns="http://www.w3.org/2000/svg">
<path d="M10 16H0V13C0 10.3 5.3 9 8 9C9.5 9 11.9 9.4 13.7 10.3C12.9 10.6 12.3 11 11.7 11.5C10.6 11.1 9.3 10.9 8 10.9C5 10.9 1.9 12.4 1.9 13V14.1H10.2C10.1 14.5 10 15 10 15.5V16ZM19 15.5C19 17.4 17.4 19 15.5 19C13.6 19 12 17.4 12 15.5C12 13.6 13.6 12 15.5 12C17.4 12 19 13.6 19 15.5ZM8 2C9.1 2 10 2.9 10 4C10 5.1 9.1 6 8 6C6.9 6 6 5.1 6 4C6 2.9 6.9 2 8 2ZM8 0C5.8 0 4 1.8 4 4C4 6.2 5.8 8 8 8C10.2 8 12 6.2 12 4C12 1.8 10.2 0 8 0Z" fill="#47BAE0"/>
</svg>
